<svg xmlns="http://www.w3.org/2000/svg" version="1.1" xmlns:xlink="http://www.w3.org/1999/xlink" width="1000" height="1000"><g clip-path="url(#SvgjsClipPath1146)"><rect width="1000" height="1000" fill="#ffffff"></rect><g transform="matrix(1.5625,0,0,1.5625,150,100)"><svg xmlns="http://www.w3.org/2000/svg" version="1.1" xmlns:xlink="http://www.w3.org/1999/xlink" width="448" height="512"><svg xmlns="http://www.w3.org/2000/svg" viewBox="0 0 448 512"><!--!Font Awesome Pro 6.7.2 by @fontawesome - https://fontawesome.com License - https://fontawesome.com/license (Commercial License) Copyright 2025 Fonticons, Inc.--><path class="fa-secondary" opacity="1" fill="#3c7dd2" d="M44.4 192l359.1 0L374.3 455.1c-3.6 32.4-31 56.9-63.6 56.9l-173.4 0c-32.6 0-60-24.5-63.6-56.9L44.4 192z"></path><path class="fa-primary" fill="#1e3050" d="M182.4 72L168 72c-22.1 0-40 17.9-40 40l0 32 296 0c13.3 0 24 10.7 24 24s-10.7 24-24 24L24 192c-13.3 0-24-10.7-24-24s10.7-24 24-24l56 0 0-32c0-48.6 39.4-88 88-88l14.4 0C190.7 9.7 206.2 0 224 0l64 0c26.5 0 48 21.5 48 48s-21.5 48-48 48l-64 0c-17.8 0-33.3-9.7-41.6-24z"></path></svg></svg></g></g><defs><clipPath id="SvgjsClipPath1146"><rect width="1000" height="1000" x="0" y="0" rx="200" ry="200"></rect></clipPath></defs></svg>